<?xml version="1.0" encoding="utf-8"?>
<!-- Generator: Adobe Illustrator 21.0.2, SVG Export Plug-In . SVG Version: 6.00 Build 0)  -->
<svg version="1.1" id="Слой_1" xmlns="http://www.w3.org/2000/svg" xmlns:xlink="http://www.w3.org/1999/xlink" x="0px" y="0px"
	 viewBox="0 0 60 60" style="enable-background:new 0 0 60 60;" xml:space="preserve">
<g>
	<path class="st0" d="M60,29.3c0,0.5,0,0.9,0,1.4c0,0.2-0.1,0.5-0.1,0.7c-0.1,1-0.1,2.1-0.3,3.1c-1,6.4-3.8,12-8.4,16.6
		c-4.7,4.7-10.4,7.6-17.1,8.5c-0.9,0.1-1.9,0.2-2.8,0.3c-0.9,0-1.8,0-2.7,0c-0.5-0.1-1-0.1-1.4-0.2c-5.5-0.6-10.5-2.4-14.9-5.7
		C5.9,49.4,1.9,43.1,0.5,35.2C0.3,34.1,0.2,33,0,31.9c0-1.2,0-2.5,0-3.8c0-0.4,0.1-0.8,0.1-1.2C0.9,20.6,3.2,15,7.5,10.2
		c4.9-5.5,11-8.8,18.2-9.9c0.8-0.1,1.7-0.2,2.5-0.3c1.1,0,2.3,0,3.4,0c0.2,0,0.4,0.1,0.6,0.1c1.3,0.2,2.6,0.3,3.8,0.5
		c6.6,1.4,12.2,4.7,16.6,9.8c3.9,4.5,6.2,9.6,7,15.5C59.8,27,59.9,28.2,60,29.3z M29.9,56c14.3,0,26-11.6,26.1-26
		C56.1,15.8,44.4,4,30.1,4C15.7,3.9,4,15.5,3.9,30C3.9,44.3,15.5,56,29.9,56z"/>
	<path class="st0" d="M32.7,30.1c0.2,0.3,0.5,0.5,0.7,0.8c2.7,2.9,5.5,5.8,8.2,8.6c1.1,1.2,0.6,3-0.9,3.3c-0.8,0.2-1.4-0.1-2-0.7
		c-2.7-2.9-5.4-5.7-8.2-8.6c-0.2-0.2-0.3-0.4-0.6-0.7c-0.2,0.2-0.3,0.4-0.4,0.6c-2.7,2.9-5.5,5.8-8.2,8.7c-0.9,0.9-2,1-2.9,0.2
		c-0.9-0.8-0.9-2,0-2.9c2.1-2.2,4.2-4.5,6.4-6.7c0.8-0.9,1.6-1.7,2.5-2.6c-0.1-0.2-0.2-0.3-0.4-0.4c-2.8-3-5.6-5.9-8.4-8.9
		c-0.5-0.5-0.8-1-0.7-1.7c0.1-0.8,0.5-1.4,1.3-1.7c0.8-0.3,1.5-0.1,2.1,0.5c2.1,2.2,4.1,4.4,6.2,6.5c0.8,0.9,1.7,1.8,2.6,2.8
		c0.2-0.2,0.3-0.4,0.4-0.6c2.8-3,5.5-5.9,8.3-8.9c0.9-0.9,2-1,2.9-0.2c0.9,0.8,0.9,2,0,3c-2.8,3-5.6,6-8.5,8.9
		C33.1,29.7,32.9,29.9,32.7,30.1z"/>
</g>
</svg>
